<?xml version="1.0" standalone="no"?>
<!DOCTYPE svg PUBLIC "-//W3C//DTD SVG 20010904//EN"
 "http://www.w3.org/TR/2001/REC-SVG-20010904/DTD/svg10.dtd">
<svg version="1.0" xmlns="http://www.w3.org/2000/svg"
 width="640.000000pt" height="512.000000pt" viewBox="0 0 640.000000 512.000000"
 preserveAspectRatio="xMidYMid meet">

<g transform="translate(0.000000,512.000000) scale(0.100000,-0.100000)"
fill="#ffffff" stroke="none">
<path d="M2405 4794 c-708 -75 -1280 -597 -1415 -1290 -12 -60 -24 -171 -27
-247 -5 -114 -9 -140 -22 -144 -9 -4 -58 -26 -110 -50 -356 -164 -646 -495
-764 -869 -48 -152 -61 -245 -61 -434 0 -193 13 -284 64 -442 73 -222 186
-405 355 -573 209 -210 449 -338 750 -401 86 -18 169 -19 2100 -19 1925 0
2014 1 2095 19 286 62 525 203 713 416 383 436 421 1075 94 1560 -65 96 -201
238 -298 310 -42 31 -116 77 -166 103 -88 45 -283 117 -318 117 -13 0 -16 5
-11 23 56 190 68 335 42 483 -72 415 -375 718 -790 790 -115 20 -287 14 -401
-16 -82 -21 -204 -74 -256 -111 -17 -12 -31 -20 -33 -18 -1 2 -28 42 -59 89
-233 352 -602 597 -1023 680 -106 21 -360 34 -459 24z m891 -1459 c37 -18 156
-131 481 -457 424 -426 431 -434 448 -491 25 -87 7 -155 -59 -225 -65 -70
-144 -93 -232 -67 -55 16 -69 28 -276 233 l-218 216 0 -689 c0 -511 -3 -698
-12 -729 -26 -86 -136 -166 -228 -166 -92 0 -202 80 -228 166 -9 31 -12 218
-12 729 l0 687 -217 -209 c-120 -116 -231 -217 -248 -225 -112 -57 -251 -5
-310 117 -32 64 -32 133 -1 198 19 38 807 838 876 889 74 54 157 62 236 23z"/>
</g>
</svg>
